# xmcd
# Track frame offsets:
# 150
# 20191
# 35256
# 53275
# 63184
# 73737
# 95369
# 109251
# 122917
# 135571
# 152838
# 164482
# 178378
# 195183
# 208077
# 225322
# 241262
# 256878
# 272225
# 290372
# 306730
# 322334
# 330661
# 339182
# 347083
#
# Disc length: 4747 seconds
# Revision: 0
# Processed by: cddbd v1.5.2PL0 Copyright (c) Steve Scherf et al.
# Submitted via: VisiTrax 2.11.1.266 - For more info visit www.synapsa.com
#
DISCID=76128919
DTITLE=Various Artist - Dwight Yoakum And Company
DYEAR=1980
DGENRE=Country
TTITLE0=Dwight Yoakum - A Thousand Miles From Nowhere
TTITLE1=Dwight Yoakum - Ain't That Lonely Yet
TTITLE2=Dwight Yoakum and Sheryl Crow - Baby Plaese Don't Go
TTITLE3=Dwight Yoakum - Blue Moon Of Kentucky
TTITLE4=Dwight Yoakum - Crazy Little Thing Called Love
TTITLE5=Dwight Yoakum - Fast As You
TTITLE6=Dwight Yoakum - Guitars And Cadilacs
TTITLE7=Dwight Yoakum - Hillbilly Music
TTITLE8=Dwight Yoakum - Honky Tonk Man
TTITLE9=Dwight Yoakum - I Sang Dixie
TTITLE10=Dwight Yoakum - It Hurts When I Cry
TTITLE11=Dwight Yoakum - Little Sister
TTITLE12=Dwight Yoakum - Since I Started Drinkin Again
TTITLE13=Dwight Yoakum - Streets Of Babkersfield
TTITLE14=Dwight Yoakum - Suspicious Minds
TTITLE15=Dwight Yoakum and Melencamp - Sweet Suzanna
TTITLE16=Dwight Yoakum - Things Change
TTITLE17=Dwight Yoakum - Turn It On, Turn It Up, Turn Me Loose
TTITLE18=Dwight Yoakum - You're The One
TTITLE19=Adam Lambert and Allison - Slow Ride
TTITLE20=Adam Lambert - Play That Funky Music
TTITLE21=Adam Lambert - Ring Of Fire
TTITLE22=Adam Lambert - Black And White
TTITLE23=Adam Lambert - Crying
TTITLE24=Adam Lambert - Whole Lotta Love
EXTD=
EXTT0=
EXTT1=
EXTT2=
EXTT3=
EXTT4=
EXTT5=
EXTT6=
EXTT7=
EXTT8=
EXTT9=
EXTT10=
EXTT11=
EXTT12=
EXTT13=
EXTT14=
EXTT15=
EXTT16=
EXTT17=
EXTT18=
EXTT19=
EXTT20=
EXTT21=
EXTT22=
EXTT23=
EXTT24=
PLAYORDER=
